<svg width="20" height="20" viewBox="0 0 20 20" fill="none" xmlns="http://www.w3.org/2000/svg">
<mask id="mask0_2711_14960" style="mask-type:alpha" maskUnits="userSpaceOnUse" x="0" y="0" width="20" height="20">
<rect width="20" height="20" fill="#D9D9D9"/>
</mask>
<g mask="url(#mask0_2711_14960)">
<path d="M6.7563 16.5821C6.38657 16.5821 6.07081 16.4513 5.809 16.1896C5.54734 15.9278 5.4165 15.6121 5.4165 15.2423V5.4988H4.4165V4.41547H7.99984V3.51172H11.9998V4.41547H15.5832V5.4988H14.5832V15.2334C14.5832 15.6187 14.4537 15.9398 14.1946 16.1967C13.9356 16.4537 13.6185 16.5821 13.2434 16.5821H6.7563ZM13.4998 5.4988H6.49984V15.2423C6.49984 15.3172 6.52386 15.3787 6.57192 15.4267C6.61998 15.4748 6.68143 15.4988 6.7563 15.4988H13.2434C13.3075 15.4988 13.3663 15.4721 13.4196 15.4186C13.4731 15.3653 13.4998 15.3065 13.4998 15.2423V5.4988ZM8.3365 13.9988H9.41963V6.9988H8.3365V13.9988ZM10.58 13.9988H11.6632V6.9988H10.58V13.9988Z" fill="white"/>
</g>
</svg>
