<svg width="806" height="806" viewBox="0 0 806 806" fill="none" xmlns="http://www.w3.org/2000/svg">
<path d="M122.954 614.134L97.7907 548.035L82.2575 476.819M82.2575 476.819L76.9825 402.978L82.1901 329.136L97.6784 257.92L122.796 191.821M82.2575 476.819L44.9733 475.922L19.8778 474.934L7.30756 473.924M82.2575 476.819L130.877 477.605L189.419 478.256L255.951 478.727L328.095 479.019L403.135 479.086L478.174 478.952L550.318 478.615L616.828 478.099L675.347 477.403L723.945 476.572L761.206 475.652L786.257 474.665L798.827 473.116L798.917 472.6M7.26266 332.233L1.04489 403.09V403.606M464.078 801.79L469.106 800.848L479.566 797.997L513.618 788.997L524.033 786.304M524.033 786.304L533.685 784.508L539.252 782.601L564.64 770.997L591.082 758.899L598.265 755.623L602.597 753.647M524.033 786.304L510.543 787.942L505.627 789.289L484.033 795.237L457.164 802.643M524.033 786.304L540.532 778.314L576.963 760.672L581.093 758.675L594.875 756.206L608.366 746.667L648.995 717.939L650.678 716.749L660.106 713.786M659.881 91.9443L654.741 88.3981L602.35 52.1506L594.628 49.547L580.846 47.0782L576.649 45.0582L540.33 27.5292L523.764 19.5166M523.764 19.5166L510.273 17.8557L505.29 16.4866L483.809 10.6062L458.264 3.60354L456.895 3.22199M523.764 19.5166L533.416 21.3345L538.983 23.2423L564.527 34.8909L591.553 47.2128L597.951 50.1306L602.35 52.1281M523.764 19.5166L513.236 16.8008L479.387 7.8904M798.805 473.655L798.917 472.622L805 402.82V402.506L798.895 333.019L798.827 332.727L798.76 331.941M798.76 331.941L798.603 331.38L780.533 264.07L780.331 263.352L779.837 262.297L753.978 206.971L750.342 199.183L738.737 196.535L738.064 195.547L699.051 138.449M798.76 331.941L798.872 333.019L805 402.798V403.112M699.051 138.449L678.804 135.576L649.376 132.928L611.508 130.616L566.323 128.708L515.301 127.294L460.195 126.419L402.978 126.149L345.761 126.464L290.654 127.361L239.61 128.82M699.051 138.449L709.758 141.456M699.051 138.449L650.454 88.9592L648.748 87.7472L608.186 59.1083L594.606 49.5246L585.986 45.552L533.416 21.3121L528.545 20.0777L521.07 18.1923L515.885 16.8906L479.387 7.8904M403.135 804.933V804.843L403.157 792.162V766.755V728.936V679.581V620.104V552.479L403.112 479.131V402.82L403.067 326.532V253.207L403 185.604V126.172L402.933 76.8618M402.933 76.8618V39.0431L402.888 13.681V1.02244L402.843 1H400.329L390.564 1.13467L378.645 1.42644L355.188 14.0401L354.515 14.3993L332.337 15.2746L298.51 41.2651L269.284 42.9035L229.441 81.3282L194.424 130.751L165.58 189.734L144.076 256.349L130.81 328.283L126.343 402.955L130.855 477.627L144.166 549.561L165.715 616.176L194.604 675.16L229.666 724.582M402.933 76.8618L450.408 77.1311L496.177 77.984L538.669 79.3755L576.402 81.2384L611.486 130.638L640.397 189.6L661.969 256.192L675.302 328.126L679.837 402.798L675.37 477.47L662.081 549.427L640.555 616.041L611.688 675.047L576.649 724.492L538.915 726.378L507.58 764.555L474.83 765.767L451.53 791.466L427.759 792.005L403.157 792.184L378.555 792.005L354.784 791.489L332.607 790.636L312.719 789.469L270.474 763.59L269.531 763.007L229.666 724.582M402.933 76.8618L355.458 77.176L309.666 78.0513L267.174 79.4653L229.419 81.3731L197.612 83.6848L156.512 133.152L127.061 135.823L106.792 138.718L67.8242 195.839L67.1508 196.827L37.7903 261.691L19.7655 331.201L13.7049 403.09L19.8104 474.979L37.8801 544.489L67.2854 609.331L89.8221 611.844L122.886 614.156L156.691 672.87L194.581 675.16L239.767 677.045L290.811 678.437L345.918 679.289L403.135 679.559L460.352 679.245L515.459 678.347L566.48 676.91L611.643 675.003L649.511 672.691L683.293 613.954L716.335 611.62L738.849 609.106L768.21 544.242L786.234 474.71L792.295 402.82L786.19 330.931L768.097 261.421L738.692 196.58L716.178 194.043L683.136 191.687L640.375 189.622L589.129 187.916L531.082 186.659L468.275 185.896L403 185.649L337.725 185.941L274.896 186.749L216.826 188.051L165.558 189.779L122.774 191.889M229.666 724.582L197.859 722.315L156.736 672.848L127.286 670.244L90.3608 612.585L89.8669 611.822L62.0778 546.329L44.9509 475.944L39.1596 403.045L44.906 330.146L61.988 259.738L89.7323 194.245L90.2261 193.46L127.106 135.801L172.741 86.2884L197.657 83.6624L244.548 44.9235L269.307 42.926L270.25 42.3424L312.472 16.4866L332.36 15.297L333.392 14.893L365.042 2.81799L367.512 1.87533M229.666 724.582L267.421 726.445L298.757 764.6L331.507 765.79L354.784 791.466L355.458 791.825L378.915 804.484M122.931 614.179L165.715 616.221L216.983 617.904L275.053 619.139L337.882 619.902L403.157 620.149L468.433 619.857L531.239 619.049L589.286 617.77L640.532 616.064L683.293 613.999M798.85 333.086L798.76 332.547L786.167 330.954L761.116 329.921L723.855 328.979L675.257 328.148L616.739 327.475L550.229 326.981L478.085 326.689L403.045 326.6L328.005 326.734L255.861 327.093L189.329 327.632L130.787 328.35L82.1677 329.226L44.8835 330.191L19.788 331.223L7.21777 332.3M780.286 263.441L768.075 261.466L743.967 259.558L708.299 257.785L661.924 256.237L606.166 254.957L542.866 254.015L474.291 253.431L402.978 253.252L331.664 253.476L263.067 254.104L199.767 255.092L143.986 256.416L97.5886 258.01L61.8982 259.805L37.7679 261.736L25.5344 263.733M25.6242 542.626L37.8577 544.556L61.988 546.419L97.6784 548.147L144.076 549.674L199.856 550.93L263.156 551.851L331.754 552.412L403.067 552.591L474.381 552.367L542.956 551.761L606.233 550.796L661.991 549.516L708.366 547.968L744.034 546.217L768.142 544.332L780.353 542.379M438.444 804.125L440.913 803.182L472.608 791.062L473.64 790.681L493.506 789.513L535.773 763.613L536.716 763.029L561.452 761.054L608.343 722.293L633.237 719.689L678.871 670.177L699.118 667.327L738.086 610.183L738.759 609.196L750.364 606.57M750.23 199.295L749.22 197.837L720.937 157.594L709.668 141.546L707.94 139.818L682.755 114.815L659.814 92.0341L650.386 89.049L633.057 86.1986L631.845 85.2784L580.779 47.1455L561.25 44.8786L536.514 42.9035L535.548 42.32L493.281 16.4866L473.416 15.3195L472.383 14.9155L440.711 2.88532L438.197 1.92022L427.041 1.47133M357.433 2.54866L348.836 3.31176L321.945 10.7184L297.5 17.4292L295.457 17.9903L294.739 18.3719L245.738 44.2951L244.458 44.9684L224.907 47.2353L173.885 85.413L172.673 86.3333L155.322 89.1837L106.769 138.718L96.0398 141.726M448.545 803.406L462.776 798.985L489.802 790.568L493.595 789.379L510.52 787.942L511.216 787.583L560.262 761.615L561.542 760.942L581.071 758.675L632.115 720.475L633.327 719.577L650.656 716.749L699.208 667.192L709.915 664.229M683.316 613.932L708.456 547.833L723.945 476.617L729.152 402.776L723.877 328.934L708.344 257.718L683.159 191.642L649.354 132.95L608.209 83.5053L561.273 44.8113L559.993 44.138L510.992 18.2597L510.228 17.8557L493.281 16.4192L489.443 15.2297L462.507 6.88041L448.23 2.45888L438.197 1.85288M348.836 3.24443L341.922 4.11976L302.214 14.3768L284.952 18.8432L282.012 19.6063L265.491 27.5965L226.703 46.3599L224.952 47.2128L211.147 49.7041L197.634 59.243L157.05 87.9492L155.344 89.1612L145.894 92.1463M479.387 7.8904L463.786 4.07487M479.387 7.8904L468.814 5.01753L463.786 4.07487M463.786 4.07487L456.872 3.19954L448.275 2.45888M341.967 4.11976L336.939 5.08486L304.122 13.3893L284.728 18.3046L277.208 20.2123L272.36 21.4468L266.77 23.377L214.312 47.8188L211.192 49.7266L203.448 52.3301M203.695 753.827L211.439 756.408L214.604 758.338L267.062 782.735L272.651 784.643L282.326 786.439L285.222 787.179L292.719 789.109L326.816 798.11L337.231 800.938L342.259 801.88M427.4 804.461L450.902 791.803L451.575 791.444L473.752 790.568L507.625 764.533L536.828 762.917L576.693 724.47L608.478 722.181L649.578 672.691L679.006 670.065L715.909 612.383L716.402 611.62L744.147 546.105L761.229 475.697L766.975 402.798L761.184 329.899L744.057 259.514L716.268 194.021L715.774 193.235L678.849 135.599L633.17 86.1313L608.276 83.5277L576.491 81.2384L536.603 42.8586L507.4 41.2426L473.528 15.2746L451.35 14.3993L450.677 14.0401L427.175 1.42644L415.256 1.15711L405.469 1.04489H402.933H402.776M239.632 128.82L216.871 188.006L199.879 255.047L189.374 327.565L185.827 402.933L189.419 478.301L199.969 550.841L217.028 617.882L239.834 677.067L267.444 726.467L309.936 727.836M239.632 128.82L267.219 79.4428L298.51 41.2875L331.26 40.0755L366.457 39.3124L402.91 39.0431L439.364 39.29L474.56 40.0307L496.177 77.9615L515.279 127.294L531.082 186.614L542.911 253.947L550.251 326.914L552.743 402.776L550.296 478.66L543.023 551.649L531.239 619.026L515.481 678.369L496.424 727.747L474.83 765.745L439.633 766.486L403.18 766.755L366.726 766.53L331.529 765.812L309.936 727.836M239.632 128.82L194.447 130.751L156.579 133.107L122.819 191.844L89.7547 194.223L67.2181 196.782L55.5682 199.453L52.0216 207.084L26.118 262.588L25.6242 263.643L25.4895 264.182L7.41979 331.694L7.26266 332.256L7.08309 333.333L1.04489 402.618V403.135L7.19532 473.206L7.30756 473.969L7.44224 474.508L25.5793 542.065L25.7139 542.581L26.1853 543.614L52.1563 599.186L55.7029 606.749L56.713 608.186L85.1531 648.653L96.2867 664.499L97.9927 666.204L123.358 691.387L146.141 714.033M309.936 727.836L355.727 728.689L403.202 728.959L450.677 728.644L496.446 727.769L538.938 726.355L566.548 676.933L589.331 617.725L606.346 550.684L616.851 478.144L620.397 402.776L616.806 327.43L606.233 254.912L589.174 187.894L566.346 128.731L538.713 79.3531L507.355 41.2202L474.605 40.0307L451.283 14.3993L427.512 13.883L402.91 13.7035L378.309 13.883M309.936 727.836L290.856 678.459L275.076 619.116L263.269 551.761L255.951 478.772L253.459 402.888L255.906 327.026L263.179 254.06L274.941 186.704L290.676 127.384L309.711 78.0289L331.282 40.0755L354.537 14.4217L378.309 13.883M378.309 13.883L390.564 1.15711L402.708 1.06733H402.82H402.888H403.022L415.189 1.15711L427.49 13.883L439.386 39.3124L450.43 77.1311L460.195 126.464L468.298 185.874L474.358 253.409L478.13 326.644L479.431 402.843L478.197 479.041L474.471 552.3L468.455 619.857L460.397 679.312L450.655 728.689L439.633 766.553L427.759 792.05L415.458 804.82L403.225 804.91L403.135 805L398.96 804.933L390.834 804.82L378.915 804.551L367.759 804.102L357.725 803.496L349.128 802.756L342.214 801.903L326.771 798.132L289.935 789.042L285.042 787.808L277.365 785.877L272.584 784.665L219.924 760.358L214.559 758.338L207.982 755.802L203.672 753.827L166.545 728.151L148.812 715.874L146.141 714.033M378.309 13.883L366.479 39.3349L355.503 77.1535L345.806 126.486L337.77 185.896L331.776 253.431L328.073 326.667L326.838 402.865L328.117 479.064L331.866 552.322L337.927 619.879L346.008 679.312L355.749 728.667L366.771 766.53L378.623 792.005L390.901 804.776L403.09 804.865L403.18 804.955L407.355 804.888L415.48 804.753L427.4 804.484L438.556 804.035L448.589 803.429L457.187 802.688L464.1 801.835L479.589 798.042L516.379 788.93L521.295 787.695L528.927 785.765L533.708 784.553L586.368 760.224L594.898 756.273L602.62 753.692L655.055 717.355L660.128 713.831L682.979 691.095L708.232 665.98L709.938 664.274L721.161 648.294L749.489 607.939L750.499 606.503L754.113 598.759L779.972 543.322L780.443 542.289L780.623 541.594L798.648 474.216L798.782 473.677L798.85 472.959L798.939 472.645L805 403L804.955 402.843H792.318L766.93 402.798H729.152H679.814H620.353H552.743H479.387L403.09 402.843H326.771L253.414 402.91L185.782 402.955L126.298 403L76.9376 403.045L39.1147 403.09H13.7498L1.06734 403.157L1 403.426L7.10553 472.981L7.24022 473.475L7.28511 473.991M146.141 714.033L155.591 716.973L157.275 718.163L197.971 746.914L211.394 756.408L225.199 758.855L226.927 759.685L265.805 778.471L282.259 786.416L295.749 788.055L297.747 788.616L322.259 795.349L349.105 802.733M96.2418 664.476L106.971 667.439L155.546 716.951L172.898 719.757L174.11 720.654L225.176 758.832L244.728 761.076L245.985 761.75L295.076 787.718L295.727 788.055L312.674 789.469L314.111 789.917L343.494 799.052L357.68 803.451M55.7029 606.705L67.3528 609.308L68.0262 610.273L107.039 667.394L127.308 670.222L172.965 719.712L197.881 722.293L244.795 761.032L269.554 762.984L298.779 764.578L332.629 790.591L333.662 790.972L365.379 803.07L367.826 803.99M378.668 1.42644L367.512 1.87533M367.512 1.87533L357.478 2.48132L343.247 6.90285L313.931 16.0152L312.472 16.4641L295.525 17.923L282.034 19.5839L272.36 21.4019L238.577 37.0007L214.29 47.7515L207.803 50.2653L203.425 52.2628L166.231 78.0289L148.633 90.2161L145.917 92.1014L123.066 114.838L97.8131 139.93L96.0847 141.658L84.9062 157.594L56.5559 197.971L55.5458 199.43" stroke="url(#paint0_linear_2918_16529)" stroke-width="1.08501" stroke-linecap="round" stroke-linejoin="round"/>
<defs>
<linearGradient id="paint0_linear_2918_16529" x1="403" y1="364.5" x2="403" y2="712.5" gradientUnits="userSpaceOnUse">
<stop stop-color="white"/>
<stop offset="1" stop-color="white" stop-opacity="0"/>
</linearGradient>
</defs>
</svg>
