<svg width="20" height="20" viewBox="0 0 20 20" fill="none" xmlns="http://www.w3.org/2000/svg">
<mask id="mask0_2849_16793" style="mask-type:alpha" maskUnits="userSpaceOnUse" x="0" y="0" width="20" height="20">
<rect width="20" height="20" fill="#D9D9D9"/>
</mask>
<g mask="url(#mask0_2849_16793)">
<path d="M5.75046 17.582C5.38046 17.582 5.0656 17.4512 4.80588 17.1895C4.5463 16.9277 4.4165 16.612 4.4165 16.2422V8.75516C4.4165 8.38543 4.54734 8.06967 4.809 7.80787C5.07081 7.5462 5.38657 7.41536 5.7563 7.41536H6.4165V5.41536C6.4165 4.42092 6.7656 3.57509 7.4638 2.87786C8.16185 2.18064 9.0088 1.83203 10.0046 1.83203C11.0003 1.83203 11.8457 2.18064 12.5407 2.87786C13.2357 3.57509 13.5832 4.42092 13.5832 5.41536V7.41536H14.2434C14.6131 7.41536 14.9289 7.5462 15.1907 7.80787C15.4523 8.06967 15.5832 8.38543 15.5832 8.75516V16.2422C15.5832 16.612 15.4522 16.9277 15.1903 17.1895C14.9284 17.4512 14.6125 17.582 14.2425 17.582H5.75046ZM5.7563 16.4987H14.2434C14.3182 16.4987 14.3797 16.4747 14.4278 16.4266C14.4758 16.3786 14.4998 16.3171 14.4998 16.2422V8.75516C14.4998 8.6803 14.4758 8.61884 14.4278 8.57078C14.3797 8.52273 14.3182 8.4987 14.2434 8.4987H5.7563C5.68143 8.4987 5.61998 8.52273 5.57192 8.57078C5.52386 8.61884 5.49984 8.6803 5.49984 8.75516V16.2422C5.49984 16.3171 5.52386 16.3786 5.57192 16.4266C5.61998 16.4747 5.68143 16.4987 5.7563 16.4987ZM10.0042 13.7904C10.3645 13.7904 10.6691 13.6644 10.9182 13.4124C11.1671 13.1606 11.2915 12.8546 11.2915 12.4943C11.2915 12.134 11.1655 11.8294 10.9136 11.5804C10.6618 11.3315 10.3557 11.207 9.99546 11.207C9.63518 11.207 9.33053 11.333 9.0815 11.5849C8.83262 11.8368 8.70817 12.1428 8.70817 12.5031C8.70817 12.8634 8.83414 13.168 9.08609 13.417C9.33789 13.6659 9.64393 13.7904 10.0042 13.7904ZM7.49984 7.41536H12.4998V5.41536C12.4998 4.72092 12.2568 4.13064 11.7707 3.64453C11.2846 3.15842 10.6943 2.91536 9.99984 2.91536C9.30539 2.91536 8.71512 3.15842 8.229 3.64453C7.74289 4.13064 7.49984 4.72092 7.49984 5.41536V7.41536Z" fill="#F7931A"/>
</g>
</svg>
