<svg width="20" height="20" viewBox="0 0 20 20" fill="none" xmlns="http://www.w3.org/2000/svg">
<mask id="mask0_2849_16690" style="mask-type:alpha" maskUnits="userSpaceOnUse" x="0" y="0" width="20" height="20">
<rect width="20" height="20" fill="#D9D9D9"/>
</mask>
<g mask="url(#mask0_2849_16690)">
<path d="M5.75654 16.4987H14.2436C14.3185 16.4987 14.3799 16.4747 14.428 16.4266C14.4761 16.3786 14.5001 16.3171 14.5001 16.2422V8.75516C14.5001 8.6803 14.4761 8.61884 14.428 8.57078C14.3799 8.52273 14.3185 8.4987 14.2436 8.4987H5.75654C5.68168 8.4987 5.62022 8.52273 5.57216 8.57078C5.52411 8.61884 5.50008 8.6803 5.50008 8.75516V16.2422C5.50008 16.3171 5.52411 16.3786 5.57216 16.4266C5.62022 16.4747 5.68168 16.4987 5.75654 16.4987ZM10.0045 13.7904C10.3647 13.7904 10.6694 13.6644 10.9184 13.4124C11.1673 13.1606 11.2917 12.8546 11.2917 12.4943C11.2917 12.134 11.1658 11.8294 10.9138 11.5804C10.662 11.3315 10.356 11.207 9.99571 11.207C9.63543 11.207 9.33078 11.333 9.08175 11.5849C8.83286 11.8368 8.70842 12.1428 8.70842 12.5031C8.70842 12.8634 8.83439 13.168 9.08633 13.417C9.33814 13.6659 9.64418 13.7904 10.0045 13.7904ZM5.75071 17.582C5.38071 17.582 5.06585 17.4512 4.80612 17.1895C4.54654 16.9277 4.41675 16.612 4.41675 16.2422V8.75516C4.41675 8.38543 4.54758 8.06967 4.80925 7.80787C5.07105 7.5462 5.38682 7.41536 5.75654 7.41536H11.4167V5.41536C11.4167 4.42092 11.7658 3.57509 12.464 2.87786C13.1621 2.18064 14.009 1.83203 15.0049 1.83203C16.0006 1.83203 16.8459 2.18064 17.5409 2.87786C18.2359 3.57509 18.5834 4.42092 18.5834 5.41536H17.5001C17.5001 4.72092 17.257 4.13064 16.7709 3.64453C16.2848 3.15842 15.6945 2.91536 15.0001 2.91536C14.3056 2.91536 13.7154 3.15842 13.2292 3.64453C12.7431 4.13064 12.5001 4.72092 12.5001 5.41536V7.41536H14.2436C14.6133 7.41536 14.9291 7.5462 15.1909 7.80787C15.4526 8.06967 15.5834 8.38543 15.5834 8.75516V16.2422C15.5834 16.612 15.4524 16.9277 15.1905 17.1895C14.9287 17.4512 14.6128 17.582 14.2428 17.582H5.75071Z" fill="white"/>
</g>
</svg>
